<svg width="20" height="20" viewBox="0 0 20 20" fill="none" xmlns="http://www.w3.org/2000/svg">
<path fill-rule="evenodd" clip-rule="evenodd" d="M1.14532 0.699977C0.896485 0.771754 0.664764 1.1031 0.664764 1.38719C0.664764 1.70241 0.508876 1.535 4.84451 5.87549L8.94584 9.98142L4.84426 14.0873C1.06981 17.8658 0.73925 18.2063 0.699786 18.3568C0.547538 18.9367 1.03148 19.4208 1.61127 19.2685C1.7617 19.2291 2.10212 18.8984 5.87945 15.1228L9.98417 11.02L14.0889 15.1228C17.8662 18.8984 18.2066 19.2291 18.3571 19.2685C18.9369 19.4208 19.4208 18.9367 19.2685 18.3568C19.2291 18.2063 18.8985 17.8658 15.1241 14.0873L11.0225 9.98142L15.1241 5.87549C18.8985 2.09705 19.2291 1.75652 19.2685 1.60605C19.4208 1.02608 18.9369 0.542004 18.3571 0.694296C18.2066 0.733771 17.8662 1.06443 14.0889 4.83999L9.98417 8.94279L5.87945 4.84025C2.32212 1.28478 1.75533 0.73246 1.62911 0.698484C1.45691 0.652126 1.30961 0.652563 1.14532 0.699977Z" fill="black"/>
</svg>
