<svg width="26" height="25" viewBox="0 0 26 25" fill="none" xmlns="http://www.w3.org/2000/svg">
<path fill-rule="evenodd" clip-rule="evenodd" d="M12.647 1.52162C12.4463 1.61457 12.2664 1.80579 12.1901 2.0072C12.1503 2.11218 12.1323 4.19105 12.1323 8.67265V15.1855L10.3308 13.3876C9.34004 12.3987 8.46071 11.5639 8.37685 11.5323C7.98182 11.3839 7.51935 11.5482 7.31672 11.9088C7.1913 12.1321 7.16567 12.4943 7.26178 12.6845C7.3469 12.8528 12.4541 17.9699 12.6307 18.0638C12.8182 18.1635 13.1797 18.1636 13.3676 18.064C13.448 18.0213 14.6763 16.8201 16.0972 15.3947C18.8866 12.5961 18.8093 12.6901 18.7189 12.2083C18.6717 11.9562 18.3871 11.6655 18.1048 11.5809C17.632 11.4391 17.6025 11.461 15.641 13.4154L13.8673 15.1827L13.8531 8.59037C13.839 2.02774 13.8384 1.99739 13.7272 1.84839C13.6658 1.76606 13.5518 1.6511 13.4739 1.59295C13.2944 1.45886 12.8629 1.42162 12.647 1.52162ZM1.58981 15.4544C1.38382 15.5442 1.20698 15.7623 1.12885 16.0232C1.08909 16.1559 1.07711 16.8243 1.09228 18.0619C1.1146 19.8834 1.11645 19.9082 1.26343 20.3908C1.63787 21.6202 2.42872 22.5598 3.54487 23.1016C4.51554 23.5727 3.67988 23.5344 12.9991 23.5344C22.3196 23.5344 21.4839 23.5727 22.4534 23.1009C23.5944 22.5456 24.4311 21.5259 24.766 20.2824C24.8724 19.8871 24.8846 19.6841 24.9037 17.979C24.9247 16.1124 24.9244 16.1086 24.7997 15.8684C24.637 15.5549 24.4473 15.4224 24.1152 15.3905C23.774 15.3577 23.4647 15.5173 23.2996 15.8112C23.1897 16.0069 23.1848 16.0858 23.1839 17.6882C23.1828 19.564 23.1451 19.8732 22.8488 20.4319C22.6243 20.8554 22.161 21.3221 21.7749 21.5137C21.1112 21.8433 21.5643 21.8271 12.9991 21.8271C4.44154 21.8271 4.90867 21.8438 4.23322 21.515C3.82248 21.3152 3.35595 20.8488 3.1414 20.4236C2.85083 19.8478 2.81545 19.5518 2.81437 17.6882C2.8135 16.0858 2.80863 16.0069 2.6987 15.8112C2.48789 15.436 1.99572 15.2777 1.58981 15.4544Z" fill="url(#paint0_linear_955_30)"/>
<defs>
<linearGradient id="paint0_linear_955_30" x1="-2.23438" y1="26.1626" x2="26.5818" y2="21.8784" gradientUnits="userSpaceOnUse">
<stop offset="0.320122" stop-color="#80A4E8"/>
<stop offset="0.886036" stop-color="#A9C1E7"/>
</linearGradient>
</defs>
</svg>
